<svg width="51" height="51" viewBox="0 0 51 51" fill="none" xmlns="http://www.w3.org/2000/svg">
<g clip-path="url(#clip0_2181_105864)">
<path d="M25.6016 49.7266C39.0851 49.7266 50.0156 38.796 50.0156 25.3125C50.0156 11.829 39.0851 0.898438 25.6016 0.898438C12.118 0.898438 1.1875 11.829 1.1875 25.3125C1.1875 38.796 12.118 49.7266 25.6016 49.7266Z" fill="url(#paint0_linear_2181_105864)"/>
<path d="M25.6016 3.28125V6.875M25.6016 43.6328V47.2266M29.4297 3.63281L28.8047 7.1875M22.3984 43.3203L21.7734 46.875M33.1016 4.60938L31.8906 8.00781M19.3125 42.5L18.1016 45.8984M21.7734 3.63281L22.3984 7.1875M28.8047 43.3203L29.4297 46.875M18.1016 4.60938L19.3125 8.00781M31.8906 42.5L33.1016 45.8984M14.625 6.25L16.4219 9.375M34.7812 41.1719L36.5781 44.2578M11.5 8.4375L13.8047 11.1719M37.3984 39.3359L39.7031 42.0703M8.76562 11.1328L11.5391 13.4375M39.6641 37.0703L42.4375 39.375M6.57812 14.2969L9.70312 16.0938M41.5 34.4531L44.625 36.25M4.97656 17.7344L8.33594 18.9844M42.8672 31.5234L46.2266 32.7734M3.96094 21.4453L7.51563 22.0703M43.6875 28.4375L47.2422 29.0625M3.64844 25.2734H7.24219M43.9609 25.2734H47.5547M3.96094 29.0625L7.51563 28.4375M43.6875 22.0703L47.2422 21.4453M4.97656 32.7734L8.33594 31.5234M42.8672 18.9844L46.2266 17.7344M6.57812 36.25L9.70312 34.4531M41.5 16.0938L44.625 14.2969M8.76562 39.375L11.5391 37.0703M39.6641 13.4375L42.4375 11.1328M11.5 42.0703L13.8047 39.3359M37.3984 11.1719L39.7031 8.4375M14.625 44.2578L16.4219 41.1719M34.7812 9.375L36.5781 6.25M23.6875 3.39844L23.8438 5.35156M27.3594 45.1953L27.5156 47.1484M19.8984 4.0625L20.4063 5.9375M30.7969 44.5703L31.3047 46.4844M16.3047 5.35156L17.125 7.14844M34.0391 43.3984L34.8984 45.1563M12.9844 7.26562L14.1172 8.86719M37.0859 41.6406L38.2188 43.2422M10.0547 9.72656L11.4609 11.0938M39.7422 39.4141L41.1484 40.7812M7.59375 12.6562L9.23438 13.7891M41.9687 36.7187L43.6094 37.8516M5.71875 15.9766L7.47656 16.7969M43.7266 33.7109L45.4844 34.5312M4.39062 19.5703L6.30469 20.0781M44.8984 30.4297L46.8125 30.9375M3.72656 23.3203L5.67969 23.5156M45.5234 26.9922L47.4766 27.1875M3.72656 27.1875L5.67969 26.9922M45.5234 23.5156L47.4766 23.3203M4.39062 30.9375L6.30469 30.4297M44.8984 20.0781L46.8125 19.5703M5.71875 34.5312L7.47656 33.7109M43.7266 16.7969L45.4844 15.9766M7.59375 37.8516L9.23438 36.7187M41.9687 13.7891L43.6094 12.6562M12.9844 43.2422L14.1172 41.6406M37.0859 8.86719L38.2188 7.26562M16.3047 45.1563L17.1641 43.3984M34.0391 7.14844L34.8984 5.35156M19.8984 46.4844L20.4063 44.5703M30.7969 5.9375L31.3047 4.0625M23.6875 47.1484L23.8438 45.1953M27.3594 5.35156L27.5156 3.39844" stroke="white"/>
<path d="M42.2812 8.51562L23.5312 23.2422L25.5625 25.2734L42.2812 8.51562Z" fill="#FF0000"/>
<path d="M25.5625 25.2734L27.9062 27.6172L42.2812 8.51562L25.5625 25.2734Z" fill="#D01414"/>
<path d="M23.5312 23.2422L8.80469 41.9922L25.5625 25.2734L23.5312 23.2422Z" fill="white"/>
<path d="M8.80469 41.9922L27.9062 27.6172L25.5625 25.2734L8.80469 41.9922Z" fill="#ACACAC"/>
</g>
<defs>
<linearGradient id="paint0_linear_2181_105864" x1="25.6094" y1="0.903125" x2="25.6094" y2="49.7281" gradientUnits="userSpaceOnUse">
<stop stop-color="#19D7FF"/>
<stop offset="1" stop-color="#1E64F0"/>
</linearGradient>
<clipPath id="clip0_2181_105864">
<rect width="50" height="50" fill="white" transform="translate(0.601562 0.3125)"/>
</clipPath>
</defs>
</svg>
