<svg width="50" height="51" viewBox="0 0 50 51" fill="none" xmlns="http://www.w3.org/2000/svg">
<path d="M3.34228 37.8244C5.35325 41.3094 8.17672 44.2566 11.5722 46.4152C14.9677 48.5737 18.8346 49.8797 22.8435 50.2217L34.165 30.6125L24.9982 25.321L15.8378 30.61L12.7837 25.3195L10.5473 21.4466L4.51948 11.0059C1.79208 14.9009 0.232566 19.4932 0.0240457 24.2437C-0.184474 28.9941 0.966657 33.7054 3.34228 37.8244Z" fill="#00AC47"/>
<path d="M24.9993 0.314454C20.9757 0.313413 17.0115 1.28489 13.4443 3.14613C9.87703 5.00738 6.81251 7.70324 4.51172 11.0041L15.8332 30.6133L24.9993 25.3216V14.7433H47.6353C45.6257 10.434 42.4286 6.78743 38.419 4.23165C34.4095 1.67587 29.7541 0.316962 24.9993 0.314454Z" fill="#EA4435"/>
<path d="M46.6522 37.8244C48.6645 34.3405 49.8051 30.4219 49.9767 26.4023C50.1484 22.3826 49.346 18.381 47.638 14.7383H24.9953V25.3215L34.1564 30.6106L31.1023 35.9012L28.8659 39.7748L22.8379 50.2153C27.5749 50.6296 32.3318 49.6838 36.5501 47.489C40.7683 45.2941 44.2729 41.9414 46.6522 37.8244Z" fill="#FFBA00"/>
<path d="M24.9952 35.9045C30.839 35.9045 35.5764 31.1671 35.5764 25.3233C35.5764 19.4795 30.839 14.7422 24.9952 14.7422C19.1514 14.7422 14.4141 19.4795 14.4141 25.3233C14.4141 31.1671 19.1514 35.9045 24.9952 35.9045Z" fill="white"/>
<path d="M24.9947 33.4992C29.5104 33.4992 33.171 29.8385 33.171 25.3228C33.171 20.8072 29.5104 17.1465 24.9947 17.1465C20.479 17.1465 16.8184 20.8072 16.8184 25.3228C16.8184 29.8385 20.479 33.4992 24.9947 33.4992Z" fill="#4285F4"/>
</svg>
