<svg width="51" height="51" viewBox="0 0 51 51" fill="none" xmlns="http://www.w3.org/2000/svg">
<g clip-path="url(#clip0_2181_105837)">
<path d="M48.1014 17.1013C47.0483 14.5674 44.9122 11.8316 43.2394 10.9667C44.4322 13.2767 45.2603 15.7573 45.6938 18.3207L45.6983 18.3613C42.958 11.5326 38.3131 8.77494 34.5172 2.77798C34.3253 2.47469 34.1333 2.17078 33.9463 1.84998C33.8394 1.66675 33.7537 1.50167 33.6793 1.34971C33.5219 1.0449 33.4006 0.722757 33.3179 0.389825C33.318 0.374462 33.3124 0.359596 33.3022 0.348062C33.2921 0.336529 33.2781 0.329135 33.2629 0.327292C33.2479 0.323194 33.2321 0.323194 33.2171 0.327292C33.214 0.327292 33.209 0.33292 33.2053 0.334171C33.2015 0.335421 33.1934 0.341049 33.1878 0.343551L33.1971 0.327292C27.1095 3.8917 25.0428 10.489 24.8552 13.7908C22.4233 13.9575 20.098 14.8534 18.1829 16.3615C17.9832 16.1923 17.7744 16.0341 17.5576 15.8875C17.0054 13.9545 16.9818 11.9089 17.4893 9.9637C15.2537 11.0467 13.2672 12.5819 11.6557 14.4723H11.6443C10.6839 13.2548 10.7514 9.24019 10.8064 8.40162C10.5223 8.51582 10.251 8.65982 9.99724 8.83122C9.1493 9.43638 8.35661 10.1154 7.62847 10.8604C6.79871 11.7017 6.04085 12.611 5.36288 13.5788C3.80487 15.7872 2.6997 18.2817 2.11114 20.9196L2.07862 21.0796C2.03297 21.2929 1.86851 22.361 1.84038 22.5929C1.84038 22.6111 1.83661 22.6279 1.83474 22.6461C1.62259 23.7488 1.49114 24.8654 1.44141 25.9873V26.1123C1.45211 32.1772 3.73613 38.0176 7.84256 42.4808C11.949 46.9439 17.5794 49.7054 23.6223 50.2201C29.6654 50.7348 35.6817 48.9652 40.4838 45.2609C45.2859 41.5565 48.5247 36.1865 49.5609 30.2108C49.6016 29.8981 49.6347 29.5886 49.671 29.2728C50.1702 25.1468 49.6297 20.9614 48.0989 17.0975L48.1014 17.1013ZM20.1677 36.0739C20.2809 36.1284 20.3871 36.1871 20.5035 36.239L20.5204 36.2496C20.4028 36.1934 20.2853 36.1348 20.1677 36.0739ZM45.6989 18.3683V18.345L45.7033 18.3708L45.6989 18.3683Z" fill="url(#paint0_linear_2181_105837)"/>
<path d="M48.1023 17.1013C47.0492 14.5674 44.913 11.8316 43.2403 10.9668C44.4331 13.2767 45.261 15.7574 45.6947 18.3208V18.3439L45.6991 18.3695C47.5675 23.7155 47.2973 29.5768 44.9449 34.7283C42.1672 40.6884 35.4461 46.7972 24.9217 46.4971C13.5531 46.175 3.53527 37.7362 1.66552 26.6865C1.3247 24.9437 1.66552 24.06 1.83685 22.6437C1.60313 23.7439 1.4727 24.8635 1.44727 25.9879V26.113C1.45798 32.1778 3.74199 38.0184 7.84842 42.4815C11.9549 46.9446 17.5853 49.7061 23.6282 50.2208C29.6713 50.7354 35.6876 48.966 40.4897 45.2616C45.2918 41.5572 48.5305 36.1871 49.5668 30.2115C49.6074 29.8988 49.6406 29.5893 49.6769 29.2735C50.176 25.1474 49.6356 20.9621 48.1048 17.0982L48.1023 17.1013Z" fill="url(#paint1_radial_2181_105837)"/>
<path d="M48.1023 17.1013C47.0492 14.5674 44.913 11.8316 43.2403 10.9668C44.4331 13.2767 45.261 15.7574 45.6947 18.3208V18.3439L45.6991 18.3695C47.5675 23.7155 47.2973 29.5768 44.9449 34.7283C42.1672 40.6884 35.4461 46.7972 24.9217 46.4971C13.5531 46.175 3.53527 37.7362 1.66552 26.6865C1.3247 24.9437 1.66552 24.06 1.83685 22.6437C1.60313 23.7439 1.4727 24.8635 1.44727 25.9879V26.113C1.45798 32.1778 3.74199 38.0184 7.84842 42.4815C11.9549 46.9446 17.5853 49.7061 23.6282 50.2208C29.6713 50.7354 35.6876 48.966 40.4897 45.2616C45.2918 41.5572 48.5305 36.1871 49.5668 30.2115C49.6074 29.8988 49.6406 29.5893 49.6769 29.2735C50.176 25.1474 49.6356 20.9621 48.1048 17.0982L48.1023 17.1013Z" fill="url(#paint2_radial_2181_105837)"/>
<path d="M36.3215 19.9472C36.374 19.9841 36.4227 20.021 36.4721 20.0579C35.8633 18.9784 35.1055 17.99 34.2209 17.122C26.6856 9.58668 32.2468 0.788217 33.1842 0.337976L33.1935 0.324219C27.1058 3.88863 25.0392 10.4859 24.8516 13.7876C25.1342 13.7683 25.4144 13.7445 25.7032 13.7445C27.863 13.7487 29.9832 14.3247 31.8482 15.414C33.7133 16.5032 35.2567 18.0669 36.3215 19.946V19.9472Z" fill="url(#paint3_radial_2181_105837)"/>
<path d="M25.7143 21.4541C25.6743 22.0569 23.5444 24.1362 22.7996 24.1362C15.9084 24.1362 14.7891 28.3054 14.7891 28.3054C15.0943 31.816 17.5405 34.7087 20.4977 36.2345C20.6328 36.3046 20.7698 36.3677 20.9067 36.4296C21.144 36.5347 21.3811 36.6318 21.6183 36.7211C22.6332 37.0802 23.6962 37.2852 24.7719 37.3295C36.8533 37.8961 39.1921 22.8843 30.4744 18.5257C32.5307 18.2582 34.6133 18.7638 36.3181 19.9446C35.2533 18.0655 33.71 16.5018 31.8449 15.4125C29.9799 14.3233 27.8597 13.7473 25.6999 13.7432C25.4123 13.7432 25.1308 13.7669 24.8482 13.7863C22.4162 13.9531 20.091 14.8489 18.1758 16.357C18.5454 16.6697 18.9625 17.0874 19.8411 17.9535C21.4857 19.5738 25.7036 21.2521 25.713 21.4491L25.7143 21.4541Z" fill="url(#paint4_radial_2181_105837)"/>
<path d="M25.7143 21.4541C25.6743 22.0569 23.5444 24.1362 22.7996 24.1362C15.9084 24.1362 14.7891 28.3054 14.7891 28.3054C15.0943 31.816 17.5405 34.7087 20.4977 36.2345C20.6328 36.3046 20.7698 36.3677 20.9067 36.4296C21.144 36.5347 21.3811 36.6318 21.6183 36.7211C22.6332 37.0802 23.6962 37.2852 24.7719 37.3295C36.8533 37.8961 39.1921 22.8843 30.4744 18.5257C32.5307 18.2582 34.6133 18.7638 36.3181 19.9446C35.2533 18.0655 33.71 16.5018 31.8449 15.4125C29.9799 14.3233 27.8597 13.7473 25.6999 13.7432C25.4123 13.7432 25.1308 13.7669 24.8482 13.7863C22.4162 13.9531 20.091 14.8489 18.1758 16.357C18.5454 16.6697 18.9625 17.0874 19.8411 17.9535C21.4857 19.5738 25.7036 21.2521 25.713 21.4491L25.7143 21.4541Z" fill="url(#paint5_radial_2181_105837)"/>
<path d="M17.048 15.5566C17.2444 15.6817 17.4064 15.7904 17.5484 15.8887C16.9962 13.9556 16.9726 11.91 17.4802 9.96484C15.2445 11.0478 13.258 12.583 11.6465 14.4736C11.7646 14.4704 15.2802 14.4072 17.048 15.5566Z" fill="url(#paint6_radial_2181_105837)"/>
<path d="M1.66101 26.6878C3.5314 37.7375 13.5486 46.1795 24.9172 46.4984C35.4416 46.796 42.164 40.6866 44.9404 34.7296C47.2928 29.5781 47.563 23.7169 45.6946 18.3708V18.3477C45.6946 18.3296 45.6908 18.3189 45.6946 18.3246L45.699 18.3652C46.5588 23.9788 43.7035 29.4149 39.2393 33.0981L39.2255 33.1294C30.5271 40.2145 22.2039 37.4029 20.5218 36.256C20.4042 36.1998 20.2866 36.1412 20.1691 36.0803C15.0982 33.6565 13.0027 29.0391 13.4529 25.0745C12.2493 25.0922 11.0662 24.7605 10.0472 24.1196C9.02822 23.4785 8.21696 22.5558 7.71175 21.4631C9.04297 20.6477 10.5608 20.1867 12.1207 20.1241C13.6805 20.0614 15.2305 20.3993 16.6228 21.1054C19.4926 22.4081 22.7581 22.5364 25.7214 21.4631C25.712 21.2661 21.4942 19.5871 19.8495 17.9675C18.9709 17.1014 18.5539 16.6844 18.1843 16.371C17.9845 16.2019 17.7757 16.0436 17.5589 15.8971C17.4151 15.7988 17.2531 15.6925 17.0586 15.565C15.2908 14.4156 11.7752 14.4787 11.6589 14.4819H11.6476C10.6871 13.2644 10.7546 9.24971 10.8097 8.41113C10.5255 8.52533 10.2543 8.66934 10.0005 8.84074C9.15254 9.4459 8.35986 10.125 7.63171 10.87C6.79898 11.7088 6.03799 12.616 5.35674 13.5821C3.79874 15.7905 2.69356 18.285 2.105 20.9228C2.09312 20.9723 1.23203 24.7368 1.65664 26.689L1.66101 26.6878Z" fill="url(#paint7_radial_2181_105837)"/>
<path d="M34.2189 17.1202C35.1037 17.9893 35.8616 18.9786 36.4702 20.0593C36.6034 20.16 36.7278 20.26 36.8335 20.357C42.3283 25.4222 39.4492 32.5822 39.2347 33.0887C43.6984 29.4111 46.5512 23.9714 45.6944 18.3558C42.953 11.5209 38.303 8.76322 34.5135 2.76626C34.3215 2.46297 34.1295 2.15906 33.9426 1.83826C33.8356 1.65504 33.7499 1.48995 33.6755 1.338C33.5181 1.03318 33.3968 0.711037 33.3141 0.378107C33.3142 0.362744 33.3086 0.347877 33.2985 0.336344C33.2884 0.32481 33.2743 0.317416 33.259 0.315573C33.2441 0.311476 33.2284 0.311476 33.2134 0.315573C33.2103 0.315573 33.2053 0.321201 33.2015 0.322452C33.1978 0.323703 33.1896 0.329331 33.184 0.331832C32.2466 0.776445 26.6868 9.58053 34.222 17.1096L34.2189 17.1202Z" fill="url(#paint8_radial_2181_105837)"/>
<path d="M36.8344 20.3601C36.7286 20.2632 36.6042 20.1631 36.471 20.0625C36.4216 20.0255 36.3728 19.9886 36.3203 19.9517C34.6155 18.7709 32.533 18.2653 30.4766 18.5329C39.1938 22.8914 36.855 37.8994 24.7742 37.3366C23.6984 37.2925 22.6355 37.0873 21.6205 36.7282C21.3833 36.6394 21.1461 36.5422 20.909 36.4368C20.772 36.3742 20.635 36.3117 20.5 36.2417L20.5169 36.2523C22.2015 37.4023 30.5222 40.2119 39.2206 33.1257L39.2344 33.0944C39.4514 32.5879 42.3304 25.4278 36.8331 20.3626L36.8344 20.3601Z" fill="url(#paint9_radial_2181_105837)"/>
<path d="M14.7914 28.3011C14.7914 28.3011 15.9102 24.132 22.8019 24.132C23.5467 24.132 25.6785 22.0527 25.7166 21.4499C22.7534 22.5233 19.4879 22.3949 16.6181 21.0922C15.2258 20.3861 13.6758 20.0483 12.116 20.1109C10.5561 20.1735 9.03824 20.6344 7.70703 21.4499C8.21224 22.5426 9.02349 23.4654 10.0425 24.1063C11.0615 24.7473 12.2445 25.079 13.4482 25.0613C12.9992 29.024 15.0941 33.6409 20.1643 36.0671C20.2776 36.1215 20.3838 36.1804 20.5002 36.2322C17.5404 34.7033 15.0966 31.8117 14.7914 28.303V28.3011Z" fill="url(#paint10_radial_2181_105837)"/>
<path d="M48.1021 17.1013C47.0491 14.5674 44.9129 11.8316 43.2401 10.9667C44.4329 13.2767 45.2609 15.7573 45.6946 18.3207L45.699 18.3613C42.9587 11.5326 38.3137 8.77494 34.5179 2.77798C34.3259 2.47469 34.134 2.17078 33.947 1.84998C33.8401 1.66675 33.7544 1.50167 33.68 1.34971C33.5226 1.0449 33.4012 0.722757 33.3185 0.389825C33.3186 0.374462 33.3131 0.359596 33.303 0.348062C33.2928 0.336529 33.2787 0.329135 33.2635 0.327292C33.2485 0.323194 33.2328 0.323194 33.2179 0.327292C33.2148 0.327292 33.2098 0.33292 33.206 0.334171C33.2023 0.335421 33.1942 0.341049 33.1885 0.343551L33.1979 0.327292C27.1102 3.8917 25.0435 10.489 24.8559 13.7908C25.1385 13.7714 25.4187 13.7476 25.7076 13.7476C27.8674 13.7518 29.9876 14.3277 31.8526 15.417C33.7177 16.5063 35.261 18.0699 36.3258 19.9491C34.621 18.7683 32.5384 18.2626 30.4821 18.5301C39.1992 22.8888 36.8604 37.8968 24.7796 37.334C23.704 37.2897 22.6409 37.0847 21.626 36.7255C21.3888 36.6367 21.1517 36.5396 20.9144 36.4341C20.7775 36.3716 20.6405 36.3091 20.5054 36.239L20.5223 36.2496C20.4048 36.1934 20.2872 36.1348 20.1697 36.0739C20.2828 36.1284 20.3892 36.1871 20.5054 36.239C17.5457 34.7094 15.102 31.8179 14.7968 28.3098C14.7968 28.3098 15.9155 24.1406 22.8073 24.1406C23.5521 24.1406 25.6838 22.0614 25.722 21.4586C25.7126 21.2616 21.4947 19.5826 19.8501 17.9629C18.9715 17.0969 18.5544 16.6798 18.1848 16.3665C17.9851 16.1973 17.7764 16.0391 17.5595 15.8925C17.0073 13.9595 16.9837 11.9139 17.4913 9.9687C15.2556 11.0517 13.2692 12.5869 11.6576 14.4774H11.6463C10.6858 13.2598 10.7533 9.24519 10.8084 8.40662C10.5242 8.52082 10.253 8.66483 9.99919 8.83622C9.15126 9.44138 8.35857 10.1204 7.63042 10.8654C6.80066 11.7067 6.04281 12.616 5.36484 13.5838C3.80683 15.7922 2.70165 18.2867 2.11309 20.9246L2.08058 21.0846C2.03492 21.2979 1.83044 22.381 1.80105 22.6136C1.61402 23.7316 1.49457 24.8599 1.44336 25.9923V26.1173C1.45407 32.1822 3.73808 38.0226 7.84452 42.4858C11.9509 46.9489 17.5814 49.7104 23.6244 50.2251C29.6673 50.7398 35.6836 48.9702 40.4857 45.2659C45.2878 41.5615 48.5267 36.1915 49.5629 30.2158C49.6035 29.9032 49.6367 29.5936 49.6729 29.2778C50.1722 25.1518 49.6318 20.9664 48.1008 17.1025L48.1021 17.1013Z" fill="url(#paint11_linear_2181_105837)"/>
</g>
<defs>
<linearGradient id="paint0_linear_2181_105837" x1="44.8935" y1="8.06909" x2="4.65703" y2="46.8899" gradientUnits="userSpaceOnUse">
<stop offset="0.048" stop-color="#FFF44F"/>
<stop offset="0.111" stop-color="#FFE847"/>
<stop offset="0.225" stop-color="#FFC830"/>
<stop offset="0.368" stop-color="#FF980E"/>
<stop offset="0.401" stop-color="#FF8B16"/>
<stop offset="0.462" stop-color="#FF672A"/>
<stop offset="0.534" stop-color="#FF3647"/>
<stop offset="0.705" stop-color="#E31587"/>
</linearGradient>
<radialGradient id="paint1_radial_2181_105837" cx="0" cy="0" r="1" gradientUnits="userSpaceOnUse" gradientTransform="translate(43.3379 5.9518) scale(50.5271 50.5271)">
<stop offset="0.129" stop-color="#FFBD4F"/>
<stop offset="0.186" stop-color="#FFAC31"/>
<stop offset="0.247" stop-color="#FF9D17"/>
<stop offset="0.283" stop-color="#FF980E"/>
<stop offset="0.403" stop-color="#FF563B"/>
<stop offset="0.467" stop-color="#FF3750"/>
<stop offset="0.71" stop-color="#F5156C"/>
<stop offset="0.782" stop-color="#EB0878"/>
<stop offset="0.86" stop-color="#E50080"/>
</radialGradient>
<radialGradient id="paint2_radial_2181_105837" cx="0" cy="0" r="1" gradientUnits="userSpaceOnUse" gradientTransform="translate(24.5775 26.5872) scale(50.5271 50.5271)">
<stop offset="0.3" stop-color="#960E18"/>
<stop offset="0.351" stop-color="#B11927" stop-opacity="0.74"/>
<stop offset="0.435" stop-color="#DB293D" stop-opacity="0.343"/>
<stop offset="0.497" stop-color="#F5334B" stop-opacity="0.094"/>
<stop offset="0.53" stop-color="#FF3750" stop-opacity="0"/>
</radialGradient>
<radialGradient id="paint3_radial_2181_105837" cx="0" cy="0" r="1" gradientUnits="userSpaceOnUse" gradientTransform="translate(30.8313 -5.30383) scale(36.6008 36.6008)">
<stop offset="0.132" stop-color="#FFF44F"/>
<stop offset="0.252" stop-color="#FFDC3E"/>
<stop offset="0.506" stop-color="#FF9D12"/>
<stop offset="0.526" stop-color="#FF980E"/>
</radialGradient>
<radialGradient id="paint4_radial_2181_105837" cx="0" cy="0" r="1" gradientUnits="userSpaceOnUse" gradientTransform="translate(18.9484 39.7201) scale(24.0567)">
<stop offset="0.353" stop-color="#3A8EE6"/>
<stop offset="0.472" stop-color="#5C79F0"/>
<stop offset="0.669" stop-color="#9059FF"/>
<stop offset="1" stop-color="#C139E6"/>
</radialGradient>
<radialGradient id="paint5_radial_2181_105837" cx="0" cy="0" r="1" gradientUnits="userSpaceOnUse" gradientTransform="translate(27.0214 22.2514) rotate(-13.592) scale(12.7569 14.9351)">
<stop offset="0.206" stop-color="#9059FF" stop-opacity="0"/>
<stop offset="0.278" stop-color="#8C4FF3" stop-opacity="0.064"/>
<stop offset="0.747" stop-color="#7716A8" stop-opacity="0.45"/>
<stop offset="0.975" stop-color="#6E008B" stop-opacity="0.6"/>
</radialGradient>
<radialGradient id="paint6_radial_2181_105837" cx="0" cy="0" r="1" gradientUnits="userSpaceOnUse" gradientTransform="translate(23.9527 4.07574) scale(17.3093)">
<stop stop-color="#FFE226"/>
<stop offset="0.121" stop-color="#FFDB27"/>
<stop offset="0.295" stop-color="#FFC82A"/>
<stop offset="0.502" stop-color="#FFA930"/>
<stop offset="0.732" stop-color="#FF7E37"/>
<stop offset="0.792" stop-color="#FF7139"/>
</radialGradient>
<radialGradient id="paint7_radial_2181_105837" cx="0" cy="0" r="1" gradientUnits="userSpaceOnUse" gradientTransform="translate(37.7086 -7.18043) scale(73.8521 73.8521)">
<stop offset="0.113" stop-color="#FFF44F"/>
<stop offset="0.456" stop-color="#FF980E"/>
<stop offset="0.622" stop-color="#FF5634"/>
<stop offset="0.716" stop-color="#FF3647"/>
<stop offset="0.904" stop-color="#E31587"/>
</radialGradient>
<radialGradient id="paint8_radial_2181_105837" cx="0" cy="0" r="1" gradientUnits="userSpaceOnUse" gradientTransform="translate(31.5705 -3.08542) rotate(83.976) scale(54.1199 35.5183)">
<stop stop-color="#FFF44F"/>
<stop offset="0.06" stop-color="#FFE847"/>
<stop offset="0.168" stop-color="#FFC830"/>
<stop offset="0.304" stop-color="#FF980E"/>
<stop offset="0.356" stop-color="#FF8B16"/>
<stop offset="0.455" stop-color="#FF672A"/>
<stop offset="0.57" stop-color="#FF3647"/>
<stop offset="0.737" stop-color="#E31587"/>
</radialGradient>
<radialGradient id="paint9_radial_2181_105837" cx="0" cy="0" r="1" gradientUnits="userSpaceOnUse" gradientTransform="translate(23.9532 10.3295) scale(46.0997)">
<stop offset="0.137" stop-color="#FFF44F"/>
<stop offset="0.48" stop-color="#FF980E"/>
<stop offset="0.592" stop-color="#FF5634"/>
<stop offset="0.655" stop-color="#FF3647"/>
<stop offset="0.904" stop-color="#E31587"/>
</radialGradient>
<radialGradient id="paint10_radial_2181_105837" cx="0" cy="0" r="1" gradientUnits="userSpaceOnUse" gradientTransform="translate(35.8336 12.83) scale(50.4582)">
<stop offset="0.094" stop-color="#FFF44F"/>
<stop offset="0.231" stop-color="#FFE141"/>
<stop offset="0.509" stop-color="#FFAF1E"/>
<stop offset="0.626" stop-color="#FF980E"/>
</radialGradient>
<linearGradient id="paint11_linear_2181_105837" x1="44.4068" y1="7.86284" x2="10.1755" y2="42.0993" gradientUnits="userSpaceOnUse">
<stop offset="0.167" stop-color="#FFF44F" stop-opacity="0.8"/>
<stop offset="0.266" stop-color="#FFF44F" stop-opacity="0.634"/>
<stop offset="0.489" stop-color="#FFF44F" stop-opacity="0.217"/>
<stop offset="0.6" stop-color="#FFF44F" stop-opacity="0"/>
</linearGradient>
<clipPath id="clip0_2181_105837">
<rect width="50" height="50" fill="white" transform="translate(0.400391 0.3125)"/>
</clipPath>
</defs>
</svg>
