<svg width="51" height="51" viewBox="0 0 51 51" fill="none" xmlns="http://www.w3.org/2000/svg">
<g clip-path="url(#clip0_2181_105826)">
<path d="M45.9365 37.518C45.266 37.8664 44.5746 38.173 43.8662 38.4359C41.6232 39.2708 39.248 39.6942 36.8547 39.6859C27.6168 39.6859 19.5701 33.3384 19.5701 25.1746C19.5821 24.0814 19.8852 23.0112 20.4481 22.0741C21.0111 21.1369 21.8136 20.3667 22.7731 19.8428C14.414 20.1943 12.2656 28.905 12.2656 34.0025C12.2656 48.4552 25.566 49.9004 28.437 49.9004C29.9799 49.9004 32.3041 49.4512 33.7103 49.002L33.9642 48.9239C39.3456 47.0641 43.9333 43.427 46.9716 38.6117C47.0599 38.4654 47.0978 38.2941 47.0795 38.1242C47.0611 37.9543 46.9876 37.7952 46.8701 37.671C46.7527 37.5469 46.5977 37.4648 46.4291 37.4371C46.2604 37.4094 46.0874 37.4379 45.9365 37.518Z" fill="url(#paint0_linear_2181_105826)"/>
<path opacity="0.35" d="M45.9365 37.518C45.266 37.8664 44.5746 38.173 43.8662 38.4359C41.6232 39.2708 39.248 39.6942 36.8547 39.6859C27.6168 39.6859 19.5701 33.3384 19.5701 25.1746C19.5821 24.0814 19.8852 23.0112 20.4481 22.0741C21.0111 21.1369 21.8136 20.3667 22.7731 19.8428C14.414 20.1943 12.2656 28.905 12.2656 34.0025C12.2656 48.4552 25.566 49.9004 28.437 49.9004C29.9799 49.9004 32.3041 49.4512 33.7103 49.002L33.9642 48.9239C39.3456 47.0641 43.9333 43.427 46.9716 38.6117C47.0599 38.4654 47.0978 38.2941 47.0795 38.1242C47.0611 37.9543 46.9876 37.7952 46.8701 37.671C46.7527 37.5469 46.5977 37.4648 46.4291 37.4371C46.2604 37.4094 46.0874 37.4379 45.9365 37.518Z" fill="url(#paint1_radial_2181_105826)"/>
<path d="M21.4437 47.4403C19.7053 46.3605 18.1984 44.9465 17.0103 43.2802C15.6536 41.4232 14.7197 39.2918 14.2741 37.0356C13.8286 34.7793 13.8823 32.453 14.4313 30.2196C14.9803 27.9863 16.0114 25.9002 17.4523 24.1077C18.8931 22.3152 20.7087 20.8597 22.7718 19.8434C23.3968 19.5505 24.432 19.0427 25.8186 19.0623C26.7943 19.0698 27.7552 19.3029 28.6259 19.7433C29.4966 20.1838 30.2537 20.8196 30.838 21.6012C31.6238 22.658 32.0546 23.9365 32.0684 25.2534C32.0684 25.2143 36.8534 9.70703 16.4439 9.70703C7.86995 9.70703 0.819397 17.8318 0.819397 24.98C0.785293 28.756 1.59257 32.4921 3.1826 35.9171C5.78657 41.4619 10.3358 45.8577 15.9666 48.2699C21.5975 50.682 27.9181 50.9429 33.7285 49.0027C31.6929 49.6456 29.5418 49.8389 27.4242 49.5691C25.3065 49.2993 23.2728 48.573 21.4633 47.4403H21.4437Z" fill="url(#paint2_linear_2181_105826)"/>
<path opacity="0.41" d="M21.4437 47.4403C19.7053 46.3605 18.1984 44.9465 17.0103 43.2802C15.6536 41.4232 14.7197 39.2918 14.2741 37.0356C13.8286 34.7793 13.8823 32.453 14.4313 30.2196C14.9803 27.9863 16.0114 25.9002 17.4523 24.1077C18.8931 22.3152 20.7087 20.8597 22.7718 19.8434C23.3968 19.5505 24.432 19.0427 25.8186 19.0623C26.7943 19.0698 27.7552 19.3029 28.6259 19.7433C29.4966 20.1838 30.2537 20.8196 30.838 21.6012C31.6238 22.658 32.0546 23.9365 32.0684 25.2534C32.0684 25.2143 36.8534 9.70703 16.4439 9.70703C7.86995 9.70703 0.819397 17.8318 0.819397 24.98C0.785293 28.756 1.59257 32.4921 3.1826 35.9171C5.78657 41.4619 10.3358 45.8577 15.9666 48.2699C21.5975 50.682 27.9181 50.9429 33.7285 49.0027C31.6929 49.6456 29.5418 49.8389 27.4242 49.5691C25.3065 49.2993 23.2728 48.573 21.4633 47.4403H21.4437Z" fill="url(#paint3_radial_2181_105826)"/>
<path d="M30.5655 29.3741C30.3897 29.5694 29.9014 29.8624 29.9014 30.4678C29.9014 30.9756 30.2335 31.4834 30.8389 31.8935C33.6318 33.8467 38.9246 33.5732 38.9441 33.5732C41.0262 33.5718 43.0698 33.012 44.8619 31.9522C46.6662 30.8969 48.1633 29.3882 49.2047 27.5759C50.2462 25.7636 50.7959 23.7106 50.7992 21.6204C50.8579 17.2455 49.2368 14.3355 48.5922 13.0465C44.4322 4.96079 35.5067 0.3125 25.8001 0.3125C19.2303 0.31185 12.9243 2.89738 8.24602 7.50988C3.56774 12.1224 0.893168 18.391 0.800781 24.9602C0.898434 17.8315 7.98806 12.0699 16.4253 12.0699C17.1089 12.0699 21.0149 12.1285 24.6282 14.023C27.1666 15.2844 29.2687 17.2777 30.6632 19.7455C31.8545 21.8157 32.0693 24.4524 32.0693 25.5071C32.0693 26.5617 31.542 28.1046 30.546 29.3936L30.5655 29.3741Z" fill="url(#paint4_radial_2181_105826)"/>
<path d="M30.5655 29.3741C30.3897 29.5694 29.9014 29.8624 29.9014 30.4678C29.9014 30.9756 30.2335 31.4834 30.8389 31.8935C33.6318 33.8467 38.9246 33.5732 38.9441 33.5732C41.0262 33.5718 43.0698 33.012 44.8619 31.9522C46.6662 30.8969 48.1633 29.3882 49.2047 27.5759C50.2462 25.7636 50.7959 23.7106 50.7992 21.6204C50.8579 17.2455 49.2368 14.3355 48.5922 13.0465C44.4322 4.96079 35.5067 0.3125 25.8001 0.3125C19.2303 0.31185 12.9243 2.89738 8.24602 7.50988C3.56774 12.1224 0.893168 18.391 0.800781 24.9602C0.898434 17.8315 7.98806 12.0699 16.4253 12.0699C17.1089 12.0699 21.0149 12.1285 24.6282 14.023C27.1666 15.2844 29.2687 17.2777 30.6632 19.7455C31.8545 21.8157 32.0693 24.4524 32.0693 25.5071C32.0693 26.5617 31.542 28.1046 30.546 29.3936L30.5655 29.3741Z" fill="url(#paint5_radial_2181_105826)"/>
</g>
<defs>
<linearGradient id="paint0_linear_2181_105826" x1="12.2657" y1="34.8809" x2="47.1084" y2="34.8809" gradientUnits="userSpaceOnUse">
<stop stop-color="#0C59A4"/>
<stop offset="1" stop-color="#114A8B"/>
</linearGradient>
<radialGradient id="paint1_radial_2181_105826" cx="0" cy="0" r="1" gradientUnits="userSpaceOnUse" gradientTransform="translate(31.5032 35.1444) scale(18.6322 17.7006)">
<stop offset="0.7" stop-opacity="0"/>
<stop offset="0.9" stop-opacity="0.5"/>
<stop offset="1"/>
</radialGradient>
<linearGradient id="paint2_linear_2181_105826" x1="30.6228" y1="19.7649" x2="8.88529" y2="43.4555" gradientUnits="userSpaceOnUse">
<stop stop-color="#1B9DE2"/>
<stop offset="0.2" stop-color="#1595DF"/>
<stop offset="0.7" stop-color="#0680D7"/>
<stop offset="1" stop-color="#0078D4"/>
</linearGradient>
<radialGradient id="paint3_radial_2181_105826" cx="0" cy="0" r="1" gradientUnits="userSpaceOnUse" gradientTransform="translate(14.5801 39.1669) rotate(-81.384) scale(28.0042 22.6246)">
<stop offset="0.8" stop-opacity="0"/>
<stop offset="0.9" stop-opacity="0.5"/>
<stop offset="1"/>
</radialGradient>
<radialGradient id="paint4_radial_2181_105826" cx="0" cy="0" r="1" gradientUnits="userSpaceOnUse" gradientTransform="translate(5.85704 9.55312) rotate(92.2906) scale(39.5617 84.258)">
<stop stop-color="#35C1F1"/>
<stop offset="0.1" stop-color="#34C1ED"/>
<stop offset="0.2" stop-color="#2FC2DF"/>
<stop offset="0.3" stop-color="#2BC3D2"/>
<stop offset="0.7" stop-color="#36C752"/>
</radialGradient>
<radialGradient id="paint5_radial_2181_105826" cx="0" cy="0" r="1" gradientUnits="userSpaceOnUse" gradientTransform="translate(47.6861 15.4094) rotate(73.74) scale(19.0033 15.4535)">
<stop stop-color="#66EB6E"/>
<stop offset="1" stop-color="#66EB6E" stop-opacity="0"/>
</radialGradient>
<clipPath id="clip0_2181_105826">
<rect width="50" height="50" fill="white" transform="translate(0.800781 0.3125)"/>
</clipPath>
</defs>
</svg>
