<svg width="25" height="25" viewBox="0 0 25 25" fill="none" xmlns="http://www.w3.org/2000/svg">
<path d="M20.5621 1.50126L2.73209 3.10596C1.99203 3.17257 1.44608 3.8265 1.51269 4.56656L3.10254 22.2316C3.16915 22.9716 3.82308 23.5176 4.56314 23.451L22.3931 21.8463C23.1332 21.7797 23.6791 21.1257 23.6125 20.3857L22.0227 2.72066C21.9561 1.9806 21.3022 1.43466 20.5621 1.50126Z" fill="url(#paint0_linear_1344_36837)"/>
<path d="M20.5655 1.19853L2.73551 2.80323C1.99545 2.86983 1.4495 3.52377 1.51611 4.26383L3.10596 21.9288C3.17256 22.6689 3.8265 23.2148 4.56656 23.1482L22.3966 21.5435C23.1366 21.4769 23.6826 20.823 23.616 20.0829L22.0261 2.41793C21.9595 1.67787 21.3056 1.13192 20.5655 1.19853Z" fill="url(#paint1_linear_1344_36837)"/>
<path d="M15.147 9.36777C16.532 9.24312 17.7473 10.2578 17.872 11.6428C17.9966 13.0278 16.982 14.2431 15.597 14.3678C14.212 14.4924 12.9966 13.4778 12.872 12.0928C12.7473 10.7078 13.762 9.49242 15.147 9.36777Z" fill="url(#paint2_linear_1344_36837)"/>
<path d="M10.6108 14.8014C9.22584 14.926 8.21119 16.1414 8.33584 17.5264C8.46049 18.9114 9.67584 19.926 11.0608 19.8014C12.4458 19.6767 13.4605 18.4614 13.3358 17.0764L13.1108 14.5764L10.6108 14.8014Z" fill="url(#paint3_linear_1344_36837)"/>
<path d="M10.1422 9.81834C8.76723 9.94209 7.75758 11.157 7.88223 12.542C8.00688 13.927 9.21223 14.9425 10.5922 14.8183L13.1072 14.592L12.6572 9.59199L10.1422 9.81834Z" fill="url(#paint4_linear_1344_36837)"/>
<path d="M9.69301 4.82811C8.31801 4.95186 7.30836 6.16676 7.43301 7.55176C7.55766 8.93676 8.76301 9.95231 10.143 9.82811L12.658 9.60176L12.208 4.60176L9.69301 4.82811Z" fill="url(#paint5_linear_1344_36837)"/>
<path d="M14.7181 4.3757C16.0931 4.25195 17.3035 5.26705 17.4281 6.65205C17.5528 8.03705 16.5481 9.2515 15.1681 9.3757L12.6531 9.60205L12.2031 4.60205L14.7181 4.3757Z" fill="url(#paint6_linear_1344_36837)"/>
<defs>
<linearGradient id="paint0_linear_1344_36837" x1="12.4905" y1="22.3161" x2="10.6434" y2="2.49133" gradientUnits="userSpaceOnUse">
<stop stop-color="#95A9BB"/>
<stop offset="1" stop-color="#CAD3DC"/>
</linearGradient>
<linearGradient id="paint1_linear_1344_36837" x1="12.4909" y1="22.3161" x2="10.6438" y2="2.49129" gradientUnits="userSpaceOnUse">
<stop stop-color="#1A1A1A"/>
<stop offset="1" stop-color="#4D4D4D"/>
</linearGradient>
<linearGradient id="paint2_linear_1344_36837" x1="15.597" y1="14.3678" x2="15.147" y2="9.36777" gradientUnits="userSpaceOnUse">
<stop stop-color="#01B7FE"/>
<stop offset="1" stop-color="#34C2FE"/>
</linearGradient>
<linearGradient id="paint3_linear_1344_36837" x1="11.0613" y1="19.8064" x2="10.6113" y2="14.8064" gradientUnits="userSpaceOnUse">
<stop stop-color="#0AB875"/>
<stop offset="1" stop-color="#0AEB93"/>
</linearGradient>
<linearGradient id="paint4_linear_1344_36837" x1="10.6122" y1="14.8165" x2="10.1622" y2="9.81654" gradientUnits="userSpaceOnUse">
<stop stop-color="#923DFF"/>
<stop offset="1" stop-color="#B070FF"/>
</linearGradient>
<linearGradient id="paint5_linear_1344_36837" x1="10.1585" y1="9.83176" x2="9.70846" y2="4.83176" gradientUnits="userSpaceOnUse">
<stop stop-color="#E83F0D"/>
<stop offset="1" stop-color="#F26135"/>
</linearGradient>
<linearGradient id="paint6_linear_1344_36837" x1="15.1486" y1="9.3825" x2="14.7186" y2="4.3807" gradientUnits="userSpaceOnUse">
<stop stop-color="#FF5947"/>
<stop offset="1" stop-color="#FF8A7A"/>
</linearGradient>
</defs>
</svg>
